HIERARCHY
ROOT Hips
{
	OFFSET 0.000000 0.000000 0.000000
	CHANNELS 6 Xposition Yposition Zposition Zrotation Yrotation Xrotation 
	JOINT LHipJoint
	{
		OFFSET 0.000000 0.000000 0.000000
		CHANNELS 3 Zrotation Yrotation Xrotation
		JOINT LeftUpLeg
		{
			OFFSET 1.363060 -1.794630 0.839290
			CHANNELS 3 Zrotation Yrotation Xrotation
			JOINT LeftLeg
			{
				OFFSET 2.448110 -6.726130 0.000000
				CHANNELS 3 Zrotation Yrotation Xrotation
				JOINT LeftFoot
				{
					OFFSET 2.562200 -7.039590 0.000000
					CHANNELS 3 Zrotation Yrotation Xrotation
					JOINT LeftToeBase
					{
						OFFSET 0.157640 -0.433110 2.322550
						CHANNELS 3 Zrotation Yrotation Xrotation
						End Site
						{
							OFFSET 0.000000 0.000000 0.000000
						}
					}
				}
			}
		}
	}
	JOINT RHipJoint
	{
		OFFSET 0.000000 0.000000 0.000000
		CHANNELS 3 Zrotation Yrotation Xrotation
		JOINT RightUpLeg
		{
			OFFSET -1.305520 -1.794630 0.839290
			CHANNELS 3 Zrotation Yrotation Xrotation
			JOINT RightLeg
			{
				OFFSET -2.542530 -6.985550 0.000000
				CHANNELS 3 Zrotation Yrotation Xrotation
				JOINT RightFoot
				{
					OFFSET -2.568260 -7.056230 0.000000
					CHANNELS 3 Zrotation Yrotation Xrotation
					JOINT RightToeBase
					{
						OFFSET -0.164730 -0.452590 2.363150
						CHANNELS 3 Zrotation Yrotation Xrotation
						End Site
						{
							OFFSET 0.000000 0.000000 0.000000
						}
					}
				}
			}
		}
	}
	JOINT LowerBack
	{
		OFFSET 0.000000 0.000000 0.000000
		CHANNELS 3 Zrotation Yrotation Xrotation
		JOINT Spine
		{
			OFFSET 0.028270 2.035590 -0.193380
			CHANNELS 3 Zrotation Yrotation Xrotation
			JOINT Spine1
			{
				OFFSET 0.056720 2.048850 -0.042750
				CHANNELS 3 Zrotation Yrotation Xrotation
				JOINT Neck
				{
					OFFSET 0.000000 0.000000 0.000000
					CHANNELS 3 Zrotation Yrotation Xrotation
					JOINT Neck1
					{
						OFFSET -0.054170 1.746240 0.172020
						CHANNELS 3 Zrotation Yrotation Xrotation
						JOINT Head
						{
							OFFSET 0.104070 1.761360 -0.123970
							CHANNELS 3 Zrotation Yrotation Xrotation
							End Site
							{
								OFFSET 0.000000 0.000000 0.000000
							}
						}
					}
				}
				JOINT LeftShoulder
				{
					OFFSET 0.000000 0.000000 0.000000
					CHANNELS 3 Zrotation Yrotation Xrotation
					JOINT LeftArm
					{
						OFFSET 3.362410 1.200890 -0.311210
						CHANNELS 3 Zrotation Yrotation Xrotation
						JOINT LeftForeArm
						{
							OFFSET 4.983000 -0.000000 -0.000000
							CHANNELS 3 Zrotation Yrotation Xrotation
							JOINT LeftHand
							{
								OFFSET 3.483560 -0.000000 -0.000000
								CHANNELS 3 Zrotation Yrotation Xrotation
								JOINT LeftFingerBase
								{
									OFFSET 0.000000 0.000000 0.000000
									CHANNELS 3 Zrotation Yrotation Xrotation
									JOINT LeftHandIndex1
									{
										OFFSET 0.715260 -0.000000 -0.000000
										CHANNELS 3 Zrotation Yrotation Xrotation
										End Site
										{
											OFFSET 0.000000 0.000000 0.000000
										}
									}
								}
								JOINT LThumb
								{
									OFFSET 0.000000 0.000000 0.000000
									CHANNELS 3 Zrotation Yrotation Xrotation
									End Site
									{
										OFFSET 0.000000 0.000000 0.000000
									}
								}
							}
						}
					}
				}
				JOINT RightShoulder
				{
					OFFSET 0.000000 0.000000 0.000000
					CHANNELS 3 Zrotation Yrotation Xrotation
					JOINT RightArm
					{
						OFFSET -3.136600 1.374050 -0.404650
						CHANNELS 3 Zrotation Yrotation Xrotation
						JOINT RightForeArm
						{
							OFFSET -5.241900 -0.000000 -0.000000
							CHANNELS 3 Zrotation Yrotation Xrotation
							JOINT RightHand
							{
								OFFSET -3.444170 -0.000000 -0.000000
								CHANNELS 3 Zrotation Yrotation Xrotation
								JOINT RightFingerBase
								{
									OFFSET 0.000000 0.000000 0.000000
									CHANNELS 3 Zrotation Yrotation Xrotation
									JOINT RightHandIndex1
									{
										OFFSET -0.622530 -0.000000 -0.000000
										CHANNELS 3 Zrotation Yrotation Xrotation
										End Site
										{
											OFFSET 0.000000 0.000000 0.000000
										}
									}
								}
								JOINT RThumb
								{
									OFFSET 0.000000 0.000000 0.000000
									CHANNELS 3 Zrotation Yrotation Xrotation
									End Site
									{
										OFFSET 0.000000 0.000000 0.000000
									}
								}
							}
						}
					}
				}
			}
		}
	}
}
MOTION
Frames: 9
Frame Time: 0.008333
3.492046 17.206049 1.048529 -177.631149 -72.898463 -172.700860 -11.809602 1.769968 -1.531910 -4.021774 27.826349 -13.056688 -2.871626 -1.049922 -0.225796 0.872713 7.329287 0.447422 1.032301 -0.000000 -36.379900 9.190649 -1.811696 3.972208 1.565674 4.049995 -11.766173 2.726734 1.281235 -1.146895 0.574529 3.895514 2.090611 0.279600 0.000000 -44.152600 1.009910 -0.391171 -3.889386 -0.353810 -0.561661 -3.498187 -6.244736 -0.321897 -0.563993 7.314432 -8.289095 -1.282825 -4.118874 -0.374712 1.719871 0.000000 0.000000 0.000000 12.243122 7.806865 -2.333153 -88.670105 -14.583974 22.252155 -179.043387 -48.529384 179.965268 1.575729 -7.227201 -0.104045 0.096681 1.187932 -0.000000 0.000000 0.000000 0.000000 0.000000 0.000000 0.000000 -0.058660 -5.454617 -4.048015 94.006413 25.889069 40.978512 -179.691980 55.330184 179.881022 -8.454723 13.920667 -1.148024 0.188952 -1.212683 -0.000000 0.000000 0.000000 0.000000 0.000000 0.000000 0.000000 
3.491335 17.207587 1.052211 -177.500787 -72.537394 -172.805043 -11.825006 1.774748 -1.551797 -4.001554 28.043768 -13.105935 -2.877322 -1.047722 -0.176695 0.887797 7.441793 0.410488 1.040800 0.000001 -36.346099 9.169009 -1.823721 4.044040 1.571811 4.261222 -11.787183 2.747152 1.299158 -1.350177 0.602412 4.081453 2.315104 0.325500 0.000000 -44.133700 1.161270 -0.375755 -3.944162 -0.346476 -0.562998 -3.494870 -6.286762 -0.319704 -0.503841 7.258124 -8.384006 -1.314116 -4.124754 -0.374880 1.711698 0.000000 0.000000 0.000000 12.534003 7.928284 -2.427849 -88.214155 -15.397245 21.661700 -178.950194 -48.663969 179.971738 1.244078 -6.609554 -0.072559 0.108832 1.157014 -0.000000 0.000000 0.000000 0.000000 0.000000 0.000000 0.000000 -0.002636 -5.590264 -4.027486 94.068547 26.017377 41.310484 -179.707103 55.413468 179.881899 -8.397970 13.915786 -1.139765 0.187532 -1.211505 -0.000000 0.000000 0.000000 0.000000 0.000000 0.000000 0.000000 
3.490964 17.209593 1.055814 -177.416506 -72.185886 -172.881119 -11.843642 1.784953 -1.561674 -3.989298 28.263300 -13.138833 -2.883450 -1.049338 -0.152202 0.900557 7.549265 0.401519 1.052699 -0.000000 -36.317601 9.146563 -1.845410 4.125427 1.569239 4.457649 -11.802471 2.767101 1.316753 -1.561737 0.632379 4.276129 2.550458 0.374000 -0.000000 -44.112100 1.346321 -0.337837 -4.021911 -0.348442 -0.546870 -3.494127 -6.388659 -0.295890 -0.442355 7.180277 -8.464245 -1.289185 -4.134991 -0.375859 1.718632 0.000000 0.000000 0.000000 12.781189 8.040438 -2.557428 -87.418874 -16.721985 20.976750 -178.760945 -48.918854 179.980978 0.773038 -5.877367 -0.035639 0.121286 1.122861 -0.000000 0.000000 0.000000 0.000000 0.000000 0.000000 0.000000 0.067627 -5.741334 -3.994197 94.153141 26.114919 41.639367 -179.704078 55.499273 179.882741 -8.306821 13.900567 -1.125730 0.183018 -1.209582 -0.000000 0.000000 0.000000 0.000000 0.000000 0.000000 0.000000 
3.491564 17.211933 1.059267 -177.378273 -71.852503 -172.938768 -11.865939 1.800291 -1.561642 -3.980188 28.483315 -13.148769 -2.889388 -1.054698 -0.152146 0.910439 7.648626 0.422043 1.067900 0.000000 -36.299400 9.123238 -1.877566 4.214229 1.560820 4.632290 -11.803294 2.786346 1.333648 -1.781198 0.664103 4.476693 2.793227 0.424100 -0.000000 -44.084701 1.565361 -0.274311 -4.120007 -0.363270 -0.510717 -3.498379 -6.569666 -0.247277 -0.396184 7.097417 -8.513156 -1.179284 -4.146053 -0.377656 1.748677 0.000000 0.000000 0.000000 12.961015 8.097332 -2.721518 -86.205549 -18.658118 20.166606 -178.485720 -49.392382 179.992426 0.185448 -5.070036 0.000942 0.132494 1.086968 -0.000000 0.000000 0.000000 0.000000 0.000000 0.000000 0.000000 0.167427 -5.887939 -3.942017 94.244136 26.166510 41.934552 -179.673014 55.586402 179.883209 -8.196795 13.874555 -1.108029 0.175246 -1.206677 -0.000000 0.000000 0.000000 0.000000 0.000000 0.000000 0.000000 
3.493535 17.214513 1.062255 -177.385873 -71.548870 -172.982981 -11.891477 1.820252 -1.552745 -3.970693 28.699411 -13.129073 -2.894591 -1.063462 -0.179118 0.916893 7.736406 0.475198 1.086300 0.000001 -36.293000 9.099368 -1.919831 4.308317 1.548082 4.787215 -11.785331 2.803330 1.348618 -1.998120 0.695622 4.666363 3.033326 0.472000 0.000000 -44.052700 1.808229 -0.186170 -4.235062 -0.395770 -0.455398 -3.507746 -6.850693 -0.174264 -0.371825 7.045347 -8.521829 -0.973515 -4.149936 -0.379788 1.804976 0.000000 0.000000 0.000000 13.042562 8.083311 -2.911020 -84.508108 -21.311556 19.214030 -178.153163 -50.231737 -179.994784 -0.482611 -4.253897 0.032331 0.140736 1.051782 -0.000000 0.000000 0.000000 0.000000 0.000000 0.000000 0.000000 0.320180 -6.007026 -3.869347 94.320766 26.155514 42.157530 -179.606103 55.660731 179.883031 -8.083351 13.834172 -1.088368 0.164328 -1.202484 -0.000000 0.000000 0.000000 0.000000 0.000000 0.000000 0.000000 
3.496987 17.217303 1.064679 -177.420782 -71.283895 -173.027754 -11.919634 1.844757 -1.535202 -3.957447 28.910949 -13.087279 -2.899500 -1.074097 -0.227993 0.919128 7.802723 0.558416 1.106500 0.000001 -36.300501 9.074809 -1.969934 4.405142 1.537455 4.921582 -11.746257 2.817967 1.362463 -2.210944 0.725648 4.829576 3.266138 0.513299 -0.000000 -44.014900 2.064589 -0.084684 -4.364543 -0.447572 -0.391999 -3.522353 -7.239463 -0.088862 -0.373359 7.062013 -8.491413 -0.675405 -4.138058 -0.381622 1.886960 0.000000 0.000000 0.000000 12.992819 7.962762 -3.096577 -82.246895 -24.722127 18.076054 -177.832286 -51.585988 -179.982355 -1.141619 -3.493044 0.053781 0.143619 1.019191 -0.000000 0.000000 0.000000 0.000000 0.000000 0.000000 0.000000 0.553103 -6.074604 -3.778731 94.359913 26.088070 42.291887 -179.504510 55.717034 179.882057 -7.989300 13.779307 -1.069951 0.151427 -1.196845 -0.000000 0.000000 0.000000 0.000000 0.000000 0.000000 0.000000 
3.502725 17.219927 1.066881 -177.459747 -71.062477 -173.098205 -11.949331 1.873908 -1.509844 -3.930646 29.101535 -13.015717 -2.901823 -1.084482 -0.304994 0.918639 7.853213 0.667209 1.128400 0.000000 -36.327000 9.050801 -2.020952 4.493218 1.539795 5.016212 -11.671001 2.831994 1.377143 -2.431367 0.755202 4.968888 3.495513 0.548000 0.000000 -43.972100 2.320598 0.006476 -4.494228 -0.514618 -0.342412 -3.545551 -7.711389 -0.016776 -0.426316 7.169439 -8.401398 -0.285956 -4.101748 -0.382624 1.995009 0.000000 0.000000 0.000000 12.829315 7.631692 -3.226678 -79.341516 -28.762011 16.633811 -177.646002 -53.575975 -179.972602 -1.667354 -2.859728 0.063642 0.141394 0.991028 -0.000000 0.000000 0.000000 0.000000 0.000000 0.000000 0.000000 0.863732 -6.040617 -3.674656 94.335152 25.966971 42.324766 -179.367691 55.760238 179.880118 -7.936861 13.717683 -1.056575 0.137489 -1.189668 -0.000000 0.000000 0.000000 0.000000 0.000000 0.000000 0.000000 
3.510391 17.222555 1.068585 -177.479272 -70.896291 -173.198893 -11.977701 1.905992 -1.478501 -3.893375 29.264397 -12.935306 -2.902647 -1.092573 -0.406905 0.914776 7.876048 0.799766 1.150100 -0.000000 -36.366300 9.028378 -2.067065 4.568717 1.561365 5.077727 -11.570536 2.844657 1.393343 -2.652381 0.781431 5.055680 3.715011 0.568699 0.000000 -43.927500 2.545569 0.067130 -4.619394 -0.594937 -0.323609 -3.569984 -8.237692 0.022705 -0.499754 7.407316 -8.284323 0.125744 -4.031462 -0.381528 2.110222 0.000000 0.000000 0.000000 12.535684 7.168052 -3.258908 -75.747252 -33.400419 14.876285 -177.686145 -56.422699 -179.967352 -1.943056 -2.365543 0.063231 0.134186 0.966805 -0.000000 0.000000 0.000000 0.000000 0.000000 0.000000 0.000000 1.270877 -5.921674 -3.580141 94.229273 25.823044 42.269481 -179.212071 55.770400 179.877546 -7.938615 13.646188 -1.049634 0.124685 -1.180606 -0.000000 0.000000 0.000000 0.000000 0.000000 0.000000 0.000000 
3.520031 17.225072 1.070066 -177.446949 -70.797107 -173.343787 -12.001687 1.938229 -1.445012 -3.843968 29.383047 -12.858132 -2.901509 -1.096637 -0.535506 0.908169 7.868386 0.950998 1.170400 0.000000 -36.418300 9.009881 -2.100309 4.620690 1.611394 5.095922 -11.446744 2.856922 1.412792 -2.881414 0.803679 5.079691 3.926438 0.572600 0.000000 -43.885600 2.704092 0.075139 -4.723574 -0.679570 -0.351648 -3.597066 -8.745102 0.007893 -0.608600 7.777896 -8.141669 0.516961 -3.923675 -0.377871 2.221172 0.000000 0.000000 0.000000 12.207734 6.561880 -3.174917 -71.524224 -38.349543 12.681094 -178.035333 -60.282601 -179.968311 -1.863494 -2.013064 0.054120 0.127197 0.945855 -0.000000 0.000000 0.000000 0.000000 0.000000 0.000000 0.000000 1.743739 -5.731849 -3.509783 94.024434 25.663936 42.137892 -179.046143 55.739331 179.874579 -8.001295 13.572354 -1.050616 0.114103 -1.169345 -0.000000 0.000000 0.000000 0.000000 0.000000 0.000000 0.000000 
